<svg xmlns="http://www.w3.org/2000/svg" width="448" height="437" viewBox="0 0 448 437">
<g fill-rule="evenodd">
<path d="M 171 203 L 169 206 L 169 209 L 172 212 L 175 212 L 178 209 L 179 204 L 178 203 Z M 259 200 L 255 201 L 258 201 Z M 249 188 L 249 193 L 251 195 L 258 193 L 260 191 L 258 188 L 253 186 L 251 186 Z M 118 20 L 117 41 L 150 123 L 119 135 L 79 180 L 67 218 L 81 227 L 80 234 L 94 229 L 112 248 L 120 232 L 151 223 L 164 231 L 168 247 L 150 264 L 122 264 L 128 285 L 108 318 L 127 333 L 116 333 L 101 320 L 91 332 L 119 346 L 136 375 L 165 396 L 204 403 L 246 392 L 262 401 L 266 389 L 256 374 L 233 377 L 251 363 L 265 370 L 282 398 L 283 375 L 265 363 L 279 359 L 291 373 L 301 368 L 321 336 L 322 304 L 341 296 L 337 283 L 325 287 L 337 248 L 326 181 L 302 144 L 277 123 L 247 111 L 203 110 L 192 102 L 165 28 L 169 14 L 153 7 L 150 27 L 172 78 L 176 109 L 186 110 L 165 116 L 133 51 L 132 23 Z M 204 231 L 206 229 L 210 229 L 214 234 L 219 234 L 220 233 L 219 223 L 223 220 L 227 222 L 227 226 L 229 230 L 231 231 L 235 231 L 236 229 L 235 228 L 235 225 L 237 223 L 240 223 L 243 226 L 243 231 L 237 238 L 238 240 L 237 243 L 230 249 L 228 249 L 226 247 L 226 244 L 230 240 L 230 239 L 225 238 L 220 241 L 211 241 L 205 235 Z M 175 195 L 182 196 L 187 200 L 190 205 L 191 214 L 190 215 L 190 217 L 181 225 L 179 225 L 178 226 L 170 226 L 169 225 L 164 224 L 160 220 L 159 215 L 158 214 L 158 209 L 159 208 L 159 205 L 166 198 L 170 196 L 174 196 Z M 314 190 L 320 196 L 320 199 L 321 200 L 321 205 L 320 206 L 319 212 L 314 218 L 311 219 L 309 221 L 307 221 L 303 223 L 290 223 L 284 220 L 278 215 L 278 213 L 276 210 L 277 202 L 279 198 L 285 192 L 288 190 L 291 190 L 294 188 L 299 188 L 300 187 L 307 187 Z M 252 178 L 259 179 L 263 181 L 266 184 L 269 191 L 269 196 L 266 203 L 261 208 L 259 208 L 258 209 L 250 209 L 246 207 L 241 202 L 239 197 L 239 188 L 240 186 L 245 181 Z M 156 133 L 158 135 L 158 138 L 154 141 L 150 141 L 138 148 L 130 156 L 126 162 L 126 164 L 123 171 L 123 174 L 122 175 L 122 180 L 121 181 L 121 196 L 119 198 L 117 198 L 114 195 L 113 182 L 114 181 L 115 170 L 116 169 L 119 158 L 127 149 L 127 148 L 130 145 L 134 143 L 139 138 L 149 134 Z M 221 122 L 223 120 L 229 119 L 233 117 L 240 117 L 241 118 L 252 119 L 257 122 L 260 122 L 268 126 L 278 133 L 287 142 L 288 145 L 292 150 L 292 152 L 295 158 L 295 162 L 291 165 L 288 162 L 286 157 L 278 145 L 273 140 L 263 133 L 255 129 L 253 129 L 249 127 L 246 127 L 245 126 L 241 126 L 240 125 L 239 126 L 238 125 L 233 125 L 232 126 L 224 127 L 221 124 Z" fill="rgb(254,237,202)"/>
<path d="M 174 426 L 171 428 L 171 434 L 172 435 L 175 431 Z M 189 423 L 187 424 L 187 427 L 189 432 L 190 433 L 192 433 L 191 425 Z M 160 420 L 157 422 L 154 428 L 155 430 L 157 430 L 157 428 L 161 422 Z M 203 419 L 202 420 L 203 425 L 205 427 L 208 427 L 207 426 L 206 420 L 205 419 Z M 148 406 L 147 406 L 143 410 L 142 413 L 139 417 L 144 414 L 147 410 Z M 326 317 L 322 318 L 324 332 L 320 345 L 303 369 L 290 375 L 287 368 L 278 361 L 271 361 L 266 365 L 268 367 L 275 364 L 284 372 L 288 391 L 282 400 L 273 393 L 265 373 L 248 365 L 237 372 L 236 378 L 245 369 L 258 373 L 268 388 L 268 395 L 263 403 L 257 403 L 245 394 L 216 404 L 179 402 L 152 392 L 133 374 L 126 359 L 123 360 L 130 376 L 144 391 L 137 394 L 139 396 L 150 395 L 185 408 L 223 407 L 242 397 L 258 407 L 266 404 L 271 398 L 280 404 L 291 394 L 291 379 L 309 368 L 321 352 L 327 334 Z M 388 297 L 385 300 L 385 302 L 384 303 L 384 307 L 386 311 L 389 313 L 394 313 L 395 314 L 399 313 L 402 309 L 402 306 L 401 305 L 400 305 L 400 307 L 397 311 L 391 311 L 387 307 L 387 304 L 389 300 L 389 297 Z M 88 274 L 85 274 L 82 276 L 78 276 L 77 277 L 77 279 L 82 279 L 83 278 L 85 278 L 87 280 L 89 287 L 87 289 L 83 290 L 83 292 L 86 292 L 87 291 L 92 290 L 92 286 L 90 281 L 90 277 Z M 382 273 L 382 282 L 383 283 L 383 285 L 384 285 L 384 276 L 386 274 L 393 274 L 395 276 L 395 278 L 396 279 L 395 284 L 396 285 L 398 285 L 399 283 L 404 279 L 406 280 L 409 284 L 409 287 L 407 292 L 409 292 L 412 287 L 412 284 L 410 279 L 408 277 L 401 277 L 400 278 L 398 276 L 397 272 L 393 272 L 392 271 L 385 271 Z M 48 266 L 47 267 L 47 278 L 46 279 L 46 284 L 47 285 L 52 285 L 53 286 L 50 290 L 52 300 L 56 305 L 60 305 L 66 299 L 66 298 L 63 298 L 61 300 L 57 301 L 54 295 L 54 291 L 56 288 L 62 283 L 62 282 L 61 281 L 51 282 L 49 279 L 50 278 L 50 270 L 52 268 L 61 268 L 62 266 Z M 125 238 L 124 238 L 121 242 L 118 253 L 120 252 L 122 248 Z M 149 235 L 147 235 L 145 238 L 144 246 L 146 246 L 147 244 Z M 160 234 L 158 234 L 156 236 L 156 241 L 155 242 L 155 244 L 156 245 L 159 242 Z M 138 233 L 135 235 L 135 237 L 133 241 L 133 244 L 132 245 L 132 250 L 133 250 L 135 247 L 135 244 L 137 241 L 137 238 L 139 235 Z M 206 232 L 207 235 L 212 239 L 219 239 L 220 238 L 222 238 L 224 236 L 231 237 L 232 238 L 232 241 L 228 244 L 228 246 L 230 247 L 235 243 L 235 237 L 241 231 L 241 227 L 239 225 L 237 225 L 238 230 L 234 234 L 227 231 L 227 229 L 225 226 L 225 223 L 223 222 L 221 224 L 222 233 L 219 236 L 213 236 L 211 234 L 210 231 L 207 231 Z M 286 200 L 284 201 L 282 206 L 282 209 L 280 213 L 280 215 L 281 216 L 283 214 L 283 212 L 286 205 Z M 298 198 L 296 198 L 295 199 L 295 203 L 294 204 L 293 210 L 295 210 L 296 209 L 297 203 L 298 202 Z M 171 198 L 165 201 L 162 204 L 160 208 L 160 214 L 161 215 L 161 218 L 166 223 L 169 223 L 170 224 L 177 224 L 182 222 L 188 216 L 189 214 L 188 205 L 187 203 L 181 198 Z M 184 214 L 183 217 L 179 220 L 173 221 L 171 219 L 172 217 L 177 217 L 179 216 L 182 212 Z M 176 200 L 181 204 L 181 207 L 179 211 L 176 214 L 174 214 L 173 215 L 168 211 L 167 206 L 169 202 L 171 201 L 175 201 Z M 307 197 L 305 200 L 305 203 L 304 204 L 304 210 L 306 210 L 307 209 L 307 203 L 308 202 L 308 198 Z M 317 196 L 315 197 L 314 206 L 316 206 L 317 205 L 317 201 L 318 200 L 318 197 Z M 253 180 L 243 185 L 241 189 L 241 197 L 244 203 L 246 205 L 251 207 L 257 207 L 262 205 L 265 201 L 265 199 L 267 196 L 267 191 L 265 186 L 261 182 Z M 261 199 L 261 201 L 259 203 L 253 203 L 252 202 L 252 201 L 255 199 L 257 199 L 258 198 L 260 198 Z M 247 187 L 251 184 L 254 184 L 258 186 L 262 191 L 258 195 L 256 196 L 252 196 L 251 197 L 248 195 L 248 193 L 247 192 Z M 155 135 L 150 136 L 140 140 L 132 146 L 122 157 L 118 167 L 117 175 L 116 176 L 116 182 L 115 183 L 115 188 L 116 189 L 116 194 L 117 196 L 119 196 L 119 180 L 120 179 L 120 175 L 123 167 L 123 164 L 126 158 L 136 147 L 140 145 L 143 142 L 145 142 L 150 139 L 155 138 L 156 137 Z M 223 123 L 224 125 L 232 124 L 233 123 L 238 123 L 239 124 L 240 123 L 241 124 L 250 125 L 256 128 L 258 128 L 260 130 L 271 136 L 282 147 L 285 153 L 289 158 L 290 161 L 291 162 L 293 161 L 291 153 L 286 144 L 275 133 L 266 127 L 260 124 L 254 123 L 251 121 L 240 120 L 239 119 L 234 119 L 233 120 L 226 121 Z M 212 105 L 212 108 L 248 109 L 279 122 L 300 139 L 323 171 L 336 202 L 340 232 L 338 257 L 327 286 L 338 281 L 345 296 L 328 301 L 324 306 L 344 302 L 349 311 L 358 317 L 360 326 L 371 332 L 380 330 L 381 335 L 386 337 L 399 335 L 407 338 L 429 328 L 432 315 L 439 311 L 445 298 L 439 288 L 444 285 L 446 271 L 442 264 L 432 260 L 434 250 L 423 240 L 410 244 L 407 236 L 389 232 L 384 240 L 375 236 L 365 240 L 363 246 L 352 245 L 347 260 L 349 268 L 338 276 L 344 246 L 343 208 L 336 184 L 320 155 L 300 132 L 273 113 L 247 105 Z M 356 247 L 364 250 L 369 258 L 372 259 L 367 249 L 367 243 L 374 239 L 378 239 L 381 243 L 382 254 L 385 257 L 385 244 L 389 237 L 393 235 L 405 239 L 403 255 L 417 243 L 423 244 L 431 252 L 426 263 L 435 264 L 442 270 L 443 277 L 440 284 L 433 287 L 442 297 L 438 306 L 433 311 L 428 312 L 430 320 L 425 327 L 420 328 L 416 326 L 417 330 L 415 332 L 403 335 L 399 323 L 397 332 L 385 334 L 382 323 L 380 323 L 375 329 L 372 329 L 361 322 L 363 312 L 355 313 L 348 304 L 355 293 L 346 292 L 342 286 L 342 276 L 344 273 L 350 270 L 360 269 L 350 262 L 352 253 Z M 161 2 L 146 6 L 142 23 L 120 14 L 109 27 L 143 119 L 112 132 L 92 151 L 71 183 L 51 234 L 41 227 L 22 236 L 25 247 L 9 249 L 6 272 L 11 276 L 1 281 L 9 308 L 20 308 L 21 324 L 35 326 L 37 337 L 84 334 L 107 350 L 119 351 L 89 331 L 101 318 L 125 332 L 105 317 L 126 284 L 121 261 L 96 232 L 79 236 L 79 228 L 65 218 L 75 184 L 93 157 L 120 132 L 148 123 L 114 38 L 118 18 L 134 22 L 151 44 L 175 115 L 184 111 L 174 109 L 171 82 L 147 21 L 153 5 L 169 11 L 184 32 L 206 106 L 186 25 Z M 62 222 L 75 230 L 74 244 L 89 234 L 94 235 L 100 240 L 103 248 L 98 260 L 102 258 L 106 250 L 110 253 L 117 263 L 109 272 L 111 274 L 115 272 L 118 274 L 121 285 L 110 296 L 106 295 L 109 301 L 103 313 L 96 317 L 92 317 L 90 313 L 87 314 L 90 326 L 85 331 L 72 335 L 67 326 L 64 326 L 61 334 L 47 336 L 39 333 L 40 316 L 37 317 L 37 321 L 34 324 L 24 321 L 24 305 L 11 304 L 5 282 L 21 276 L 20 274 L 12 272 L 9 268 L 12 251 L 15 249 L 25 249 L 35 254 L 26 238 L 27 236 L 44 229 L 50 242 L 54 238 L 59 224 Z" fill="rgb(5,2,1)"/>
<path d="M 357 250 L 353 261 L 363 269 L 359 273 L 349 273 L 345 277 L 345 285 L 347 289 L 353 289 L 356 291 L 357 296 L 351 303 L 356 309 L 364 309 L 366 311 L 364 320 L 370 325 L 374 325 L 379 320 L 382 320 L 386 325 L 386 329 L 394 330 L 396 323 L 401 320 L 404 324 L 404 329 L 406 332 L 412 330 L 414 324 L 425 323 L 426 309 L 432 308 L 438 300 L 438 296 L 431 290 L 430 286 L 439 280 L 439 271 L 435 267 L 427 267 L 423 264 L 423 260 L 428 253 L 422 247 L 418 246 L 406 257 L 401 257 L 400 253 L 402 241 L 397 239 L 391 239 L 388 244 L 388 257 L 386 259 L 382 259 L 380 257 L 377 242 L 370 244 L 371 250 L 375 256 L 373 261 L 368 261 L 363 253 Z M 387 294 L 389 294 L 392 296 L 392 301 L 390 304 L 392 308 L 396 308 L 397 305 L 400 302 L 404 304 L 404 312 L 400 316 L 389 316 L 388 315 L 386 315 L 382 310 L 381 303 L 384 297 Z M 379 272 L 384 268 L 395 268 L 397 269 L 401 274 L 408 274 L 410 275 L 414 280 L 414 282 L 415 283 L 414 291 L 411 295 L 406 295 L 404 292 L 405 291 L 405 283 L 403 283 L 399 288 L 395 288 L 392 284 L 393 282 L 392 277 L 387 277 L 387 287 L 386 288 L 382 288 L 379 284 Z M 64 226 L 61 227 L 56 241 L 51 245 L 47 243 L 43 233 L 30 237 L 38 254 L 35 257 L 32 257 L 25 252 L 16 252 L 14 254 L 13 268 L 22 272 L 24 275 L 22 279 L 12 281 L 8 284 L 12 300 L 22 300 L 26 303 L 28 320 L 33 321 L 37 313 L 43 315 L 43 332 L 58 332 L 64 323 L 69 324 L 73 331 L 85 327 L 85 312 L 87 310 L 90 310 L 93 313 L 101 311 L 105 305 L 103 293 L 111 292 L 117 285 L 116 277 L 107 274 L 107 269 L 112 266 L 113 263 L 107 255 L 102 262 L 98 263 L 96 261 L 96 255 L 99 251 L 99 244 L 92 237 L 88 237 L 76 247 L 73 247 L 71 245 L 71 231 Z M 87 271 L 88 272 L 90 272 L 92 274 L 94 284 L 95 285 L 95 291 L 90 294 L 85 294 L 84 295 L 82 295 L 80 292 L 80 290 L 83 288 L 84 286 L 85 286 L 85 283 L 84 281 L 83 282 L 76 282 L 74 280 L 74 277 L 75 275 L 78 273 Z M 48 263 L 63 263 L 64 264 L 64 269 L 62 271 L 56 271 L 55 272 L 54 271 L 53 273 L 53 279 L 55 278 L 62 278 L 64 281 L 64 285 L 60 288 L 57 292 L 58 293 L 57 295 L 58 297 L 60 297 L 64 295 L 67 295 L 68 296 L 68 301 L 65 305 L 62 306 L 60 308 L 55 308 L 51 304 L 47 293 L 47 289 L 48 288 L 47 287 L 45 287 L 43 284 L 43 280 L 44 279 L 44 268 L 45 267 L 45 265 Z" fill="rgb(253,226,109)"/>
<path d="M 163 231 L 159 227 L 151 224 L 142 224 L 141 225 L 137 225 L 136 226 L 131 227 L 122 233 L 120 233 L 114 242 L 113 249 L 116 252 L 121 238 L 123 236 L 126 236 L 127 237 L 127 241 L 125 244 L 124 249 L 120 255 L 118 255 L 122 259 L 123 264 L 128 266 L 139 266 L 140 265 L 150 263 L 155 260 L 157 260 L 161 256 L 162 256 L 166 250 L 166 248 L 167 247 L 167 239 Z M 149 233 L 151 235 L 151 238 L 150 239 L 149 244 L 146 248 L 143 248 L 142 247 L 142 242 L 143 241 L 144 235 L 146 233 Z M 160 232 L 162 234 L 161 242 L 157 247 L 155 247 L 153 244 L 154 235 L 157 232 Z M 139 231 L 141 233 L 141 235 L 135 251 L 134 252 L 132 252 L 129 249 L 131 244 L 132 237 L 135 232 Z M 314 191 L 307 188 L 300 188 L 299 189 L 294 189 L 291 191 L 288 191 L 280 198 L 278 202 L 278 205 L 277 206 L 277 210 L 278 212 L 280 208 L 281 202 L 285 198 L 286 198 L 289 201 L 288 202 L 288 205 L 287 206 L 287 209 L 286 210 L 285 215 L 283 217 L 284 219 L 290 222 L 303 222 L 304 221 L 309 220 L 316 215 L 318 212 L 319 206 L 320 205 L 320 200 L 319 201 L 319 205 L 317 208 L 314 208 L 312 206 L 313 196 L 315 194 L 317 194 L 319 196 Z M 308 195 L 311 199 L 309 204 L 309 210 L 307 212 L 304 212 L 302 210 L 303 199 L 306 195 Z M 298 195 L 300 197 L 299 206 L 298 207 L 298 209 L 295 212 L 293 212 L 291 210 L 293 199 L 295 196 Z M 133 24 L 131 27 L 131 40 L 132 41 L 132 45 L 133 46 L 134 51 L 136 53 L 136 55 L 138 57 L 146 73 L 146 75 L 149 79 L 151 86 L 154 91 L 155 97 L 160 108 L 160 110 L 165 115 L 171 115 L 169 111 L 169 102 L 168 101 L 167 92 L 165 89 L 164 81 L 163 80 L 160 69 L 157 64 L 157 62 L 152 53 L 152 51 L 148 43 L 146 41 L 141 32 Z M 169 13 L 170 14 L 166 20 L 166 28 L 167 29 L 168 34 L 170 37 L 171 43 L 175 51 L 176 57 L 180 64 L 180 67 L 183 72 L 183 74 L 184 75 L 187 86 L 189 89 L 189 92 L 192 98 L 192 100 L 196 105 L 201 105 L 199 87 L 198 86 L 196 76 L 194 72 L 194 68 L 193 67 L 191 59 L 189 56 L 189 53 L 188 52 L 186 44 L 184 41 L 183 35 L 176 21 Z" fill="rgb(249,198,200)"/>
<path d="M 107 294 L 105 295 L 105 297 L 106 298 L 105 297 L 105 295 Z M 385 281 L 385 285 L 383 286 L 385 285 Z M 339 271 L 340 272 L 338 274 L 339 275 L 339 273 L 340 272 Z" fill="rgb(37,31,24)"/>
<path d="M 414 325 L 413 330 L 412 331 L 406 333 L 404 330 L 404 333 L 409 333 L 414 330 L 413 328 Z M 363 319 L 363 322 L 368 324 L 372 327 L 376 326 L 380 321 L 382 321 L 384 323 L 384 327 L 386 332 L 388 332 L 389 331 L 395 331 L 397 328 L 397 323 L 399 321 L 403 324 L 403 328 L 403 324 L 401 321 L 399 321 L 396 325 L 396 329 L 394 331 L 388 331 L 385 329 L 385 325 L 382 321 L 379 321 L 374 326 L 370 326 L 366 323 Z M 403 310 L 402 313 L 400 315 L 397 315 L 400 315 L 403 312 Z M 383 308 L 383 310 L 386 314 L 388 314 L 389 315 L 395 315 L 389 315 L 387 314 L 383 310 Z M 12 301 L 13 303 L 16 303 L 17 302 L 24 302 L 25 304 L 25 303 L 22 301 L 20 302 L 19 301 L 18 302 L 13 302 Z M 106 300 L 104 297 L 106 301 L 105 308 L 101 312 L 97 314 L 93 314 L 90 311 L 86 312 L 85 315 L 87 320 L 87 326 L 85 328 L 73 332 L 70 329 L 71 328 L 69 325 L 64 324 L 58 333 L 43 333 L 41 330 L 43 320 L 42 315 L 37 314 L 35 317 L 35 320 L 33 322 L 28 321 L 26 319 L 26 307 L 25 307 L 26 320 L 34 322 L 36 315 L 41 314 L 42 315 L 41 332 L 47 334 L 59 333 L 62 326 L 64 324 L 67 324 L 73 333 L 86 328 L 88 325 L 85 314 L 88 311 L 90 311 L 93 315 L 96 315 L 103 311 L 106 306 Z M 356 296 L 350 302 L 350 304 L 356 311 L 358 311 L 359 310 L 364 310 L 365 311 L 365 315 L 364 317 L 365 316 L 365 311 L 364 310 L 356 310 L 350 303 Z M 385 297 L 388 295 L 391 297 L 389 307 L 392 309 L 397 309 L 398 305 L 400 303 L 403 305 L 403 304 L 400 303 L 396 309 L 392 309 L 389 305 L 391 301 L 391 296 L 387 295 Z M 82 289 L 81 290 L 81 292 L 82 294 L 84 294 L 81 292 L 81 290 Z M 48 287 L 49 288 L 48 289 L 48 293 L 52 304 L 55 307 L 60 307 L 62 305 L 65 304 L 67 301 L 60 307 L 56 307 L 52 304 L 49 297 L 48 289 L 50 287 Z M 432 285 L 431 286 L 431 288 L 432 290 L 439 296 L 439 300 L 436 305 L 432 309 L 427 309 L 426 311 L 427 322 L 423 325 L 419 325 L 421 326 L 423 326 L 427 323 L 428 319 L 427 318 L 426 311 L 430 309 L 433 309 L 436 306 L 439 300 L 439 297 L 440 296 L 439 294 L 436 293 L 431 288 L 431 286 Z M 63 284 L 56 291 L 56 296 L 58 299 L 62 297 L 58 298 L 56 295 L 57 294 L 56 292 L 59 288 L 63 285 Z M 18 279 L 12 280 L 7 282 L 7 287 L 8 288 L 11 299 L 11 296 L 9 293 L 9 290 L 7 287 L 7 284 L 12 280 L 16 280 Z M 117 278 L 118 280 L 118 285 L 116 288 L 114 289 L 111 293 L 104 293 L 104 295 L 105 293 L 110 294 L 119 285 Z M 92 277 L 92 281 L 94 286 L 94 290 L 92 292 L 86 293 L 90 293 L 94 291 L 94 285 L 93 284 Z M 75 277 L 75 280 L 76 281 L 83 281 L 84 280 L 85 281 L 86 286 L 84 287 L 84 288 L 87 286 L 86 285 L 85 280 L 83 280 L 82 281 L 77 281 L 75 279 Z M 348 273 L 344 276 L 344 286 L 346 290 L 353 290 L 355 291 L 353 290 L 347 290 L 345 288 L 345 286 L 344 285 L 344 277 Z M 108 273 L 109 275 L 115 275 L 116 276 L 115 274 L 114 275 L 109 275 Z M 87 272 L 81 273 L 76 275 L 78 274 L 82 274 Z M 350 272 L 359 272 L 355 272 L 354 271 Z M 380 272 L 380 284 L 382 287 L 386 287 L 386 277 L 387 276 L 392 276 L 394 280 L 393 284 L 395 287 L 399 287 L 403 282 L 405 282 L 406 283 L 406 289 L 407 284 L 406 282 L 404 281 L 400 284 L 399 287 L 395 287 L 393 284 L 394 282 L 393 276 L 386 276 L 386 286 L 385 287 L 382 287 L 381 286 L 381 283 L 380 282 L 380 272 L 382 270 L 391 269 L 392 270 L 397 270 L 399 272 L 400 276 L 401 275 L 408 275 L 410 276 L 413 281 L 414 287 L 410 294 L 407 294 L 405 292 L 406 294 L 411 294 L 413 291 L 414 283 L 410 276 L 408 275 L 401 275 L 399 272 L 395 269 L 384 269 Z M 63 269 L 61 270 L 52 270 L 52 278 L 51 279 L 52 280 L 61 279 L 63 281 L 62 279 L 55 279 L 54 280 L 52 279 L 52 273 L 54 270 L 55 271 L 56 270 L 62 270 Z M 45 268 L 45 279 L 44 280 L 44 284 L 45 286 L 46 286 L 44 284 L 44 280 L 45 279 Z M 46 265 L 48 264 L 63 264 L 48 264 Z M 106 253 L 102 261 L 100 262 L 98 262 L 97 261 L 98 262 L 102 261 L 107 254 L 114 262 L 113 266 L 112 267 L 110 267 L 108 270 L 110 267 L 112 267 L 114 265 L 114 261 L 110 257 L 110 256 Z M 356 249 L 352 259 L 352 262 L 357 266 L 359 266 L 356 265 L 352 261 L 354 253 L 357 249 L 362 251 L 366 256 L 367 259 L 369 260 L 365 255 L 364 252 L 361 251 L 359 249 Z M 415 246 L 412 250 L 408 253 L 406 256 L 405 256 L 409 254 L 416 246 L 418 245 L 419 246 L 422 246 L 423 248 L 424 248 L 429 253 L 428 254 L 428 256 L 424 260 L 424 264 L 427 266 L 435 266 L 440 271 L 440 280 L 435 284 L 437 284 L 439 282 L 440 277 L 441 276 L 440 270 L 435 266 L 427 266 L 424 263 L 424 261 L 428 256 L 429 252 L 421 245 L 417 245 Z M 403 240 L 398 239 L 397 238 L 394 238 L 393 237 L 390 239 L 386 247 L 386 251 L 387 252 L 387 257 L 386 258 L 382 258 L 381 257 L 380 247 L 379 246 L 379 243 L 377 241 L 374 241 L 368 245 L 369 246 L 370 251 L 372 253 L 373 256 L 374 256 L 370 250 L 369 244 L 372 242 L 377 241 L 379 244 L 379 248 L 380 249 L 380 254 L 381 255 L 381 257 L 382 258 L 386 258 L 387 257 L 387 244 L 391 238 L 397 238 L 403 241 L 403 247 L 402 248 L 402 252 L 401 253 L 401 256 L 402 256 L 401 255 L 401 253 L 403 248 Z M 87 237 L 85 239 L 78 242 L 76 246 L 73 246 L 72 245 L 73 246 L 76 246 L 79 242 L 84 240 Z M 89 236 L 92 236 L 96 240 L 97 240 L 100 244 L 100 251 L 98 253 L 97 257 L 100 251 L 101 246 L 99 242 L 94 237 Z M 73 231 L 66 226 L 61 225 L 55 240 L 51 244 L 47 241 L 43 231 L 30 236 L 28 238 L 36 250 L 37 254 L 35 256 L 32 256 L 29 252 L 21 250 L 20 251 L 15 251 L 13 253 L 11 268 L 14 271 L 19 272 L 15 271 L 12 268 L 13 254 L 16 251 L 25 251 L 28 252 L 32 256 L 35 256 L 37 254 L 37 251 L 34 248 L 35 247 L 29 239 L 30 236 L 40 232 L 43 232 L 48 243 L 51 244 L 55 241 L 59 229 L 62 225 L 64 225 L 72 231 L 72 238 Z" fill="rgb(240,220,135)"/>
<path d="M 386 275 L 385 276 L 385 280 L 385 276 Z" fill="rgb(73,66,56)"/>
<path d="M 25 311 L 25 320 L 26 321 L 25 320 Z M 355 292 L 356 293 L 356 295 L 352 299 L 356 295 L 356 293 Z" fill="rgb(160,148,124)"/>
</g></svg>